<svg width="10" height="16" fill="currentColor" xmlns="http://www.w3.org/2000/svg"><path d="M7.767 8.854c-.622 0-1.18.276-1.563.71l-.98-.693c.105-.286.165-.593.165-.915 0-.316-.058-.618-.159-.9l.978-.686c.382.432.938.706 1.56.706A2.086 2.086 0 009.85 4.992c0-1.15-.935-2.084-2.084-2.084A2.086 2.086 0 005.77 5.584l-.978.686a2.69 2.69 0 00-1.667-.968V4.123a2.087 2.087 0 001.656-2.039C4.78.934 3.846 0 2.697 0A2.086 2.086 0 00.613 2.084c0 .989.693 1.817 1.618 2.03v1.193A2.694 2.694 0 00.005 7.956c0 1.331.973 2.437 2.244 2.651v1.261a2.087 2.087 0 00-1.636 2.034c0 1.15.935 2.084 2.084 2.084a2.086 2.086 0 002.084-2.084c0-.995-.702-1.829-1.637-2.034v-1.26a2.691 2.691 0 001.639-.954l.985.698a2.086 2.086 0 001.999 2.67 2.086 2.086 0 002.084-2.084c0-1.149-.935-2.084-2.084-2.084zm0-4.872a1.012 1.012 0 010 2.02 1.012 1.012 0 010-2.02zm-6.08-1.898a1.012 1.012 0 012.02 0 1.012 1.012 0 01-2.02 0zm2.02 11.818a1.012 1.012 0 01-2.02 0 1.012 1.012 0 012.02 0zm-1.01-4.537a1.41 1.41 0 01-1.41-1.41 1.41 1.41 0 012.819 0 1.41 1.41 0 01-1.41 1.41zm5.07 2.584a1.012 1.012 0 010-2.02 1.012 1.012 0 010 2.02z"/></svg>
