<svg width="16" height="16" fill="none" xmlns="http://www.w3.org/2000/svg">
  <path
    d="M2.861 8.721c.017.02.037.04.057.06l.014.012.005.003c.042.02.076.033.104.038a4.75 4.75 0 01-.08-1.026c.016-.465.104-.857.27-1.2.026-.055.153-.261.183-.304 0 0-.102.7-.118.976-.02.339.012.695.093 1.09l.043-.03a3.297 3.297 0 01.002-.712c.038-.343.12-.68.243-1.003.142-.38.334-.75.568-1.103-1.157.121-1.408 1.223-1.408 1.223s.01-.203.014-.254c.033-.378.072-.56.12-.75a2.035 2.035 0 00-.16.401 5.48 5.48 0 00-.158.791c-.037.249-.055.5-.056.752.001.222.014.483.103.736.042.12.094.218.161.3z"
    fill="currentColor" />
  <path
    d="M3.701 8.291c.105-.065.225-.116.366-.156.247-.07.518-.14.852-.22l.11-.028c.28-.068.569-.138.84-.242a2.29 2.29 0 00.48-.254 2.63 2.63 0 00.59-.555.943.943 0 00.181-.353l.067-.221s.27.303-.003.837c.173-.062.34-.24.466-.46.105-.183.286-.845.286-.845s.332.51-.061 1.173a.937.937 0 00.207-.132c1.463-1.453.204-2.275-.06-2.472a2.41 2.41 0 00-.607-.32.08.08 0 01-.032-.024l-.186-.204.328.09.133.038c.358.106.63.233.859.4.259.189 1.25 1.021.202 2.238.325-.112.937-.45 1.145-.742.999-1.403-.149-2.221-.1-2.221.02 0 .039.003.058.006a.273.273 0 00.04.003c.021 0 .057-.003.064-.024.008-.024-.008-.07-.043-.098-.09-.068-.187-.117-.31-.098-1.033.16-1.398-.16-1.398-.16s1.448.074 1.495-.164a2.876 2.876 0 00-.715-.532 3.89 3.89 0 00-1.3-.433c-.704-.105-1.242.03-1.242.03.056-.07.335-.389 1.49-.298.469.037.913.184 1.325.39.106.054.17-.073.17-.13.003-.066.118.221.12.237.01-.03.056-.18.065-.18.027 0 .14.352.14.352a1.95 1.95 0 01.15-.167c.044.2.039.3.028.327 0-.005.155-.1.155-.1s.089.372.24.52c.082.09.147.194.191.307.11-.077.246-.466.246-.466s.07.206.011.577c.005-.005.176-.128.176-.128s.025.261-.087.588a.37.37 0 00-.013.055c.094-.053.235-.226.235-.226l-.024.11c-.029.124-.08.366-.191.556-.071.121-.132.25-.17.4a.856.856 0 01.26-.158l.135-.05c.229-.082.46-.18.684-.278.474-.21.368-.502.368-.502-.121.238-.563.476-.563.476s.572-.512.328-1.111c-.067.157-.13.314-.19.462-.082.222-.199.43-.345.615a.858.858 0 01-.26.218c-.02.01-.04.02-.067.028l-.025.01s.1-.166.107-.62c.003-.165.007-.334.007-.483v-.032c0-.077-.002-.154 0-.231.002-.326.008-.573.076-.801-.007-.013-.003-.026-.01-.04-.016-.027-.028-.057-.042-.091-.021-.052-.039-.104-.06-.16a.815.815 0 00-.212-.344 5.662 5.662 0 01-.158.345v-.23c-.04-.297-.776-.566-.791-.576l.038.234s-.222-.016-.317-.166c-.02-.03-.05-.052-.076-.073l.053.179.053.124s-.172-.014-.253-.156c-.02-.034-.044-.071-.066-.11a.435.435 0 00-.335-.232 4.747 4.747 0 00-.35-.036A.757.757 0 018.334 1l.027.05a.5.5 0 01.023.056l.005.013.019.046.028.1s-.206-.008-.446-.174c-.052-.036-.117-.036-.19-.041l-.02-.002a2.322 2.322 0 00-.194-.008 1.82 1.82 0 00-.534.075l-.034.011.062-.001h.039c.395.007.517.241.517.241s-.353 0-.457.014c-.122.015-.245.03-.36.061a2.96 2.96 0 00-.946.464c-.072.051-.148.1-.227.15-.135.086-.25.2-.336.336a.199.199 0 00-.02.04c-.008.02-.004.022.009.03a.44.44 0 00.097.035c.56.136.978.606 1.042 1.17l.009.072c.02.178.042.362.033.55-.024.486-.197.92-.526 1.278-.198.223-.471.365-.767.4.253-.238.42-.555.51-.97a.805.805 0 00-.05-.481l-.009.028a1.502 1.502 0 01-.26.5c-.097.105-.2.206-.305.303-.531.506-1.42 1.352-1.405 2.697 0 .079.016.175.033.25v-.002zm8.148-3.404l-.2.17c-.119.1-.204.164-.388.23-.16.058-.284-.073-.284-.073a.755.755 0 00.26-.226c-.205.107-.45.244-.673.414a1.454 1.454 0 00-.227.205.468.468 0 00-.12.283l.031-.003a3.6 3.6 0 00.716-.286 9.324 9.324 0 001.024-.627.19.19 0 01.056-.028l.216-.062-.133.184a.186.186 0 01-.016.02c-.434.432-.884.742-1.376.946a2.65 2.65 0 01-.287.101c.303-.076.598-.179.883-.306.313-.142.532-.281.711-.45a2.2 2.2 0 00.59-.92.479.479 0 00.013-.058l-.064.02c-.074.02-.15.042-.218.075a1.349 1.349 0 00-.248.167c-.093.075-.19.157-.266.224zm-9.93 4.855c.075.12.157.238.236.352l.012.018c-.205-.722.13-1.156.13-1.156l.083.227c.021.06.053.116.097.177.086-.16.19-.314.312-.458a.836.836 0 01-.275-.242 1.384 1.384 0 01-.242-.581c-.057-.3-.07-.607-.04-.911.008-.102.02-.203.033-.306-.414.463-.736 1-.948 1.583.144.456.346.892.602 1.296v.001z"
    fill="currentColor" />
  <path
    d="M11.628 2.956c.002-.411.071-.78.214-1.127l.01-.024a.555.555 0 00-.143.147c-.109.166-.188.35-.232.543-.106.4-.169.833-.196 1.346a1.33 1.33 0 00.347-.885zm1.965 11.09c-.231-.038-.72-.21-.857-.551-.167.412.18.712.438.846a.938.938 0 00.105.048c.05.022-.096.288.026.41.123.123.24.087.284.087 0 0 .211.195.331.065.031-.034.058-.154.017-.225-.05-.089-.172-.072-.184-.072-.239.003-.217-.11-.18-.158.026-.034.076-.032.119-.032.062.008.124.012.187.011.195 0 .423-.02.575-.104.108-.06.286-.266.277-.403-.01.003-.482.186-1.138.078z"
    fill="currentColor" />
  <path
    d="M14.949 9.505c-.023-.057-.05-.114-.074-.165l-.035-.074a1.181 1.181 0 00-.039-.08.806.806 0 01-.118-.392 1.932 1.932 0 00-1.1-1.584.717.717 0 01-.126.243c-.053.07-.084.08-.153.08-.091 0-.104-.104-.077-.154a.853.853 0 00.114-.316c.02-.22-.103-.46-.254-.624-.14-.152-.378-.329-.57-.387-.047.18.01.474.072.647.077.21.317.624.259.875 0 0-.017.16-.177.261-.09.056-.126.03-.126.03.172-.365.173-.52-.016-.865-.143-.261-.21-.525-.158-.816l.008-.035a1.1 1.1 0 01-.051.116c-.146.256-.284.389-.366.654-.088.296.005.618.19.932a.722.722 0 01-.323-.469c-.304.17-.569.402-.779.68-.047.061-.102.112-.15.157-.32.294-.708.51-1.154.64-.29.083-.583.159-.877.227l-.076.018c-.398.096-.822.205-1.223.383-.462.206-.828.442-1.119.723a2.572 2.572 0 00-.773 1.513c-.067.455-.032.93.105 1.452.005.019-.601-.549-.288-2.182a3.176 3.176 0 00-.138-.004h-.04c-1.127.034-1.596.655-1.596.655s.074-.69 1.16-.921c.081-.018.765-.171.788-.179.09-.183.2-.357.325-.518l-.097.015c-.186.029-.378.058-.568.083l-.147.02c-.337.042-.685.086-1.015.184-.347.101-.618.248-.83.448a1.859 1.859 0 00-.51.89c-.008.03-.015.06-.026.089-.012.03-.014.064.01.128.21.549.57 1.028 1.036 1.386.37.293.792.524 1.252.689.016.005.04.014.064.037l.203.196-.318-.076a4.163 4.163 0 01-1.794-.92c-.159-.058-.973-.464-1.318-1.13l-.058-.111s.442.435.752.499a3.289 3.289 0 01-.33-.712.162.162 0 00-.028-.051c-.529-.66-.907-1.326-1.157-2.037a3.493 3.493 0 01-.05-.153 5.05 5.05 0 00-.037.616c0 .065.557 1.544.557 1.544s-.245-.273-.448-.617c0 0-.035-.117-.04-.124.087.523.256 1.015.503 1.47.681 1.253 1.725 2.074 3.19 2.457.353.092.737.15 1.142.15l4.582.003c.215 0 .38-.012.533-.04l.024-.004a.856.856 0 01.164-.02c.068 0 .135.01.201.025l.036.009c.068.016.13.031.193.031.77.006.663-.458.663-.458-.032-.12-.172-.204-.325-.24a.705.705 0 00-.163-.02.855.855 0 00-.326.07l-.168.071-.1.044a.77.77 0 01-.057.022.32.32 0 01-.1.02c-.115 0-.12-.113-.123-.181a.267.267 0 01.098-.218c.055-.046.114-.09.177-.133.113-.077.23-.156.321-.26a.872.872 0 00.211-.408.48.48 0 00-.026-.274c-.008-.02-.015-.024-.023-.027a5.324 5.324 0 00-.214-.065c-.285-.08-.494-.2-.658-.375a1.637 1.637 0 01-.256-.391 3.422 3.422 0 01-.243-.64c-.093-.35-.312-.63-.67-.858a2.066 2.066 0 00-.909-.306 4.594 4.594 0 00-.247-.016 2.543 2.543 0 01-.12-.014 1.954 1.954 0 00-.11-.013l-.123-.007s.032-.044.285-.141c.048-.019.098-.023.146-.032.118-.02.234-.031.344-.031.268 0 .52.062.752.183.288.152.518.383.704.706a2.69 2.69 0 01.276.705c.02.078.042.158.071.231.18.44.511.699.986.767.126.018.249.027.365.027.221 0 .433-.033.629-.097.265-.087.468-.223.619-.415a.825.825 0 00.149-.288l.02-.07.118.028.076.017a.274.274 0 00.055.005c.053 0 .108-.013.167-.026l.01-.002a.652.652 0 01.13-.014l.036-.001c.041 0 .077.028.092.054.018.03.048.049.102.06.014.003.03.005.044.005.134 0 .274-.122.278-.242.001-.046-.011-.075-.041-.096l-.077-.048-.133-.084.089-.068a.142.142 0 01.085-.029c.027 0 .05.007.07.016 0 0-.11-.589-.89-.417 0 0-.127.052-.191.076l-.03.011a.166.166 0 01-.06.011.21.21 0 01-.097-.027c-.272-.137-.54-.076-.584-.076a1.35 1.35 0 01-.314-.034.128.128 0 01-.067-.04l-.05-.056c-.239.012-.47-.02-.69-.115a1.088 1.088 0 01-.581-.527.87.87 0 01-.088-.4l.015.04c.05.144.122.276.218.395.179.22.41.37.671.474.142.056.289.096.446.123 0 0 .557.02.805-.186.188-.105.358-.154.535-.154h.036c.6 0 .652-.29.652-.29s.068.044.164.03a.39.39 0 00.352-.368c-.064-.06-.13-.117-.198-.178l-.042-.037-.078-.062.054-.061a.158.158 0 01.199-.037c.035.02.066.044.095.068l.03.023.037.029a.32.32 0 00-.02-.153h-.001zm-.74-.16c-.022.063-.05.073-.116.058a.41.41 0 00-.105-.008c-.065.003-.13.014-.194.015a.655.655 0 01-.445-.131c-.182-.15-.217-.326-.103-.55l.002.022a.435.435 0 00.201.356c.105.07.225.1.348.115a.676.676 0 01.284.083l.024.012.003-.004c-.017-.024-.023-.107-.014-.141a.33.33 0 00.001-.173.366.366 0 01-.146.177.044.044 0 01-.031.011 1.5 1.5 0 01-.382-.136c-.109-.06-.165-.152-.136-.282a.115.115 0 00-.033-.11l-.04-.046c.033-.03.06-.058.091-.083a.505.505 0 01.797.163.73.73 0 01.051.212.98.98 0 01-.057.44z"
    fill="currentColor" />
  <path
    d="M2.152 11.053c-.012-.147-.02-.294-.027-.441a.062.062 0 00-.012-.037A9.346 9.346 0 011.27 9.13a4.478 4.478 0 01-.099-.23c.13.792.469 1.535.981 2.153zm11.078 2.393c.103.069.23.119.427.167.198.05.381.074.563.074a.926.926 0 00.274-.035.473.473 0 00.345-.373c.033-.137.058-.276.074-.416a1.05 1.05 0 00-.217-.771.655.655 0 01-.177.122.35.35 0 01-.333 0 .56.56 0 00-.27-.06c-.04 0-.08.003-.12.007-.016.002-.023.005-.032.023-.15.31-.398.53-.757.673l-.01.004-.002.008a.678.678 0 000 .264c.03.127.107.229.235.313zM9.743 6.549c-.3.306-.665.558-1.146.795a4.16 4.16 0 01-1.065.34l-.725.138-.05.009-.616.117c-.542.104-1.12.226-1.675.414a4.19 4.19 0 00-.978.454c-.26.17-.438.345-.563.55-.033.054-.06.115-.086.17a3.286 3.286 0 01-.043.093.24.24 0 01-.045.066c-.282.276-.402.62-.357 1.024.027.243.102.48.23.721a1.49 1.49 0 01.775-1.12c.24-.136.503-.235.807-.302.307-.067.618-.124.91-.177l.18-.031c.3-.053.613-.108.909-.201.07-.022.139-.047.203-.07a.93.93 0 00.228-.12c.082-.062.169-.117.259-.17-.381-.009-1.027-.01-1.228-.011-.449-.003-.758.035-1.145.182-.405.154-1.561.742-1.561.742s.574-.615 1.655-1.076a4.564 4.564 0 011.707-.309c.161 0 .328.006.509.02l.896.064h.008a.16.16 0 00.043-.007c.32-.097.643-.15.917-.189.103-.014.206-.035.308-.057l-.06-.017a.655.655 0 01-.069-.026l-.051-.02-.201-.136.756.017c.162 0 1.768-.259 2.456-2.172.045-.128.093-.255.13-.395a4.28 4.28 0 01-2.222.69zm3.784 2.188a.157.157 0 10.268-.111.157.157 0 00-.268.111z"
    fill="currentColor" />
</svg>
