<svg width="12" height="12" fill="currentColor" xmlns="http://www.w3.org/2000/svg">
    <path fill-rule="evenodd" clip-rule="evenodd"
        d="M0 2.5A2.5 2.5 0 012.5 0h9a.5.5 0 01.5.5v9A2.5 2.5 0 019.5 12h-9a.5.5 0 01-.5-.5v-9zM2.5 1A1.5 1.5 0 001 2.5V11h8.5A1.5 1.5 0 0011 9.5V1H2.5zm2.92 1.834a.667.667 0 011.154 0l3.33 5.77a.667.667 0 01-.578 1H2.668a.667.667 0 01-.578-1l3.33-5.77zm.577 1.091a.424.424 0 00-.424.448l.108 1.944a.316.316 0 00.631 0l.108-1.944a.424.424 0 00-.423-.448zm0 4.782a.598.598 0 100-1.195.598.598 0 000 1.195z" />
</svg>
