<svg xmlns="http://www.w3.org/2000/svg" width="16" height="16" viewBox="0 0 6 10" fill="currentColor">
<path d="M3.72222 0C2.8938 0 2.22222 0.67157 2.22222 1.5V3H1C0.72386 3 0.5 3.22386 0.5 3.5C0.5 3.77614 0.72386 4 1 4H2.22222V8.5C2.22222 8.7761 1.99836 9 1.72222 9H0.5C0.22386 9 0 9.2239 0 9.5C0 9.7761 0.22386 10 0.5 10H1.72222C2.55065 10 3.22222 9.3284 3.22222 8.5V4H5C5.2761 4 5.5 3.77614 5.5 3.5C5.5 3.22386 5.2761 3 5 3H3.22222V1.5C3.22222 1.22386 3.44608 1 3.72222 1H5.5C5.7761 1 6 0.77614 6 0.5C6 0.22386 5.7761 0 5.5 0H3.72222Z"/>
</svg>
