<svg width="16" height="16" fill="none" xmlns="http://www.w3.org/2000/svg">
  <path
    d="M7.897 9.647a.5.5 0 01.707 0l2 2a.5.5 0 010 .707l-2 2a.5.5 0 01-.707 0l-2-2a.5.5 0 010-.707l2-2zM6.957 12l1.293 1.293L9.543 12 8.25 10.707 6.957 12zM11.397 5.647a.5.5 0 01.707 0l2 2a.5.5 0 010 .707l-2 2a.5.5 0 01-.707 0l-2-2a.5.5 0 010-.707l2-2zM10.457 8l1.293 1.293L13.043 8 11.75 6.707 10.457 8zM4.282 5.647a.5.5 0 01.707 0l1.99 1.988a.5.5 0 010 .707l-1.99 1.99a.501.501 0 01-.707-.708l1.136-1.136H2.25a.5.5 0 010-1h3.168L4.282 6.354a.5.5 0 010-.707zM7.897 1.647a.5.5 0 01.707 0l2 2a.5.5 0 010 .707l-2 2a.5.5 0 01-.707 0l-2-2a.5.5 0 010-.707l2-2zM6.957 4L8.25 5.293 9.543 4 8.25 2.707 6.957 4z"
    fill="currentColor" />
</svg>
