<svg width="24" height="24" fill="currentColor" xmlns="http://www.w3.org/2000/svg">
    <path
        d="M15.644 11.623c-1.068-.063-2.136-.063-3.204-.063 0-1.068 0-2.136-.063-3.204l-.063-1.822c0-.628-.063-1.194-.063-1.822h-.502c-.063.628-.063 1.194-.063 1.822l-.063 1.822v1.508c-.188-.44-.377-.943-.628-1.382l-.754-1.697c-.251-.565-.503-1.13-.817-1.633l-.503.188c.189.566.44 1.131.629 1.76l.628 1.696c.188.502.377.942.565 1.382-.377-.377-.753-.691-1.068-1.068L8.356 7.853c-.44-.44-.88-.816-1.382-1.256l-.377.377c.377.44.817.88 1.256 1.382l1.257 1.32c.377.376.691.753 1.068 1.067-.44-.188-.942-.377-1.382-.565L7.099 9.55c-.565-.189-1.13-.44-1.759-.629l-.188.503c.565.251 1.13.503 1.633.817l1.697.754c.44.188.942.377 1.382.628H8.356l-1.822.063c-.628 0-1.194.063-1.822.063v.502c.628.063 1.194.063 1.822.063l1.822.063c1.068 0 2.136.063 3.204.063 0 1.068 0 2.136.063 3.204l.063 1.822c.063.628.063 1.194.126 1.822h.44c.062-.628.062-1.194.125-1.822l.063-1.822c0-.503 0-1.005.063-1.57.188.502.44.942.628 1.444l.754 1.697c.251.565.502 1.13.817 1.633l.44-.188c-.19-.566-.378-1.131-.629-1.76l-.628-1.696c-.189-.502-.377-.942-.566-1.445.377.377.754.691 1.131 1.068l1.32 1.257c.44.44.88.817 1.382 1.256l.314-.314c-.377-.44-.817-.88-1.257-1.382l-1.256-1.32c-.377-.376-.691-.753-1.068-1.13.502.188.942.377 1.445.565l1.696.628c.566.189 1.131.44 1.76.629l.188-.44c-.566-.251-1.131-.503-1.634-.817l-1.696-.754c-.503-.188-.942-.44-1.445-.628.503 0 1.005 0 1.57-.063l1.823-.063c.628-.063 1.193-.063 1.822-.125v-.44c-.629-.063-1.194-.063-1.822-.126l-1.948.063z" />
    <path
        d="M12 0C5.403 0 0 5.403 0 12s5.403 12 12 12 12-5.403 12-12S18.597 0 12 0zm0 22.87C6.031 22.87 1.13 17.968 1.13 12 1.13 6.031 6.032 1.13 12 1.13c5.969 0 10.87 4.901 10.87 10.87 0 6.031-4.839 10.87-10.87 10.87z" />
</svg>
