<svg width="16" height="16" fill="none" xmlns="http://www.w3.org/2000/svg">
    <path
        d="M7.244 4.362a1.5 1.5 0 011.512 0l2 1.167a1.5 1.5 0 01.744 1.295v2.352a1.5 1.5 0 01-.744 1.295l-2 1.167a1.5 1.5 0 01-1.512 0l-2-1.167A1.5 1.5 0 014.5 9.176V6.824a1.5 1.5 0 01.744-1.295l2-1.167zm1.008.864a.5.5 0 00-.504 0L5.992 6.25 8 7.42l2.008-1.171-1.756-1.023zM5.5 9.176a.5.5 0 00.248.432L7.5 10.63V8.287l-2-1.167v2.056zm4.752.432a.5.5 0 00.248-.432V7.121l-2 1.166v2.342l1.752-1.021z"
        fill="currentColor" />
    <path
        d="M9.25 1.644a2.5 2.5 0 00-2.5 0L3.12 3.74a2.5 2.5 0 00-1.25 2.165v4.19a2.5 2.5 0 001.25 2.165l3.63 2.096a2.5 2.5 0 002.5 0l3.629-2.096a2.5 2.5 0 001.25-2.165v-4.19a2.5 2.5 0 00-1.25-2.165l-3.63-2.096h.001zm-2 .866a1.5 1.5 0 011.5 0l3.629 2.096a1.5 1.5 0 01.75 1.299v4.19a1.5 1.5 0 01-.75 1.3l-3.63 2.095a1.5 1.5 0 01-1.5 0l-3.628-2.096a1.5 1.5 0 01-.75-1.299v-4.19a1.5 1.5 0 01.75-1.3L7.25 2.51z"
        fill="currentColor" />
</svg>
