<svg width="16" height="16" fill="currentColor" xmlns="http://www.w3.org/2000/svg">
  <path
    d="M12 1.833a.5.5 0 010-1h.667A1.167 1.167 0 0113.833 2v12a1.167 1.167 0 01-1.166 1.167H4.333A2.167 2.167 0 012.167 13V3A2.167 2.167 0 014.333.833a.5.5 0 110 1A1.167 1.167 0 003.167 3v8.174c.345-.22.75-.34 1.166-.34h8.5V2a.166.166 0 00-.166-.167H12zM3.167 13a1.167 1.167 0 001.166 1.167h8.334a.167.167 0 00.166-.167v-2.167h-8.5A1.167 1.167 0 003.167 13z" />
  <path
    d="M8 4.167c.068 0 .132.013.191.038l-.542.106A.499.499 0 018 4.167zM8.191 4.205l-.545.108-2 2a.5.5 0 10.708.707L7.5 5.874v2.793a.5.5 0 101 0V5.874L9.646 7.02a.5.5 0 00.708-.707l-2-2a.498.498 0 00-.163-.108zM8.354.98a.5.5 0 00-.708 0l-2 2a.5.5 0 10.708.707L8 2.04l1.646 1.647a.5.5 0 00.708-.707l-2-2z" />
</svg>
