<svg width="16" height="16" fill="none" xmlns="http://www.w3.org/2000/svg">
    <path fill-rule="evenodd" clip-rule="evenodd"
        d="M2 4.5A2.5 2.5 0 014.5 2h9a.5.5 0 01.5.5v9a2.5 2.5 0 01-2.5 2.5h-9a.5.5 0 01-.5-.5v-9zM4.5 3A1.5 1.5 0 003 4.5V13h8.5a1.5 1.5 0 001.5-1.5V3H4.5zm2.92 1.834a.667.667 0 011.154 0l3.33 5.77a.667.667 0 01-.578 1H4.668a.667.667 0 01-.578-1l3.33-5.77zm.577 1.091a.424.424 0 00-.424.448l.108 1.944a.316.316 0 00.631 0l.108-1.944a.424.424 0 00-.423-.448zm0 4.782a.598.598 0 100-1.195.598.598 0 000 1.195z"
        fill="currentColor" />
</svg>
