<svg width="16" height="16" fill="none" xmlns="http://www.w3.org/2000/svg">
  <path
    d="M6.976 12.158l.032-.019a.476.476 0 01.484.82l-.265.157a1.429 1.429 0 01-1.454 0l-4.047-2.392a1.428 1.428 0 01-.702-1.23V4.672c0-.505.267-.973.702-1.23l4.047-2.391a1.429 1.429 0 011.454 0l4.047 2.391c.435.257.702.725.702 1.23V6a.476.476 0 01-.952 0V4.963L6.976 7.355v4.803zM6.258 1.87L2.437 4.129l4.063 2.4 4.063-2.4-3.82-2.258a.476.476 0 00-.485 0zM1.976 4.963v4.531c0 .169.09.325.234.41l3.814 2.254V7.355L1.976 4.963zM10 11a1 1 0 00-1 1v2a1 1 0 001 1h4a1 1 0 001-1v-2a1 1 0 00-1-1v-1a2 2 0 10-4 0v1zm4 3h-4v-2h4v2zm-3-3v-1a1 1 0 112 0v1h-2z"
    fill="currentColor" />
</svg>
