<svg width="16" height="16" fill="currentColor" xmlns="http://www.w3.org/2000/svg">
  <path
    d="M.582.603A2 2 0 011.997.018h12a2 2 0 012 2v6.464a.5.5 0 01-1 0V2.018a1 1 0 00-1-1h-12a1 1 0 00-1 1v9c0 .547.449.998.996 1l2.503-.036a.5.5 0 11.014 1l-2.513.036c-1.102 0-2-.9-2-2v-9A2 2 0 01.582.603z" />
  <path
    d="M.034 2.328a.5.5 0 01.652-.273l6.727 2.753a.5.5 0 01.097.052.925.925 0 00.253.116c.104.03.19.042.234.042.027 0 .113-.01.226-.043a.95.95 0 00.26-.115.5.5 0 01.097-.052l6.727-2.753a.5.5 0 11.379.925L9.004 5.715a1.994 1.994 0 01-.5.22c-.17.05-.355.083-.507.083-.285 0-.692-.101-1.008-.303L.307 2.98a.5.5 0 01-.273-.652zM11.503 6.982a.5.5 0 01.5.5v8a.5.5 0 11-1 0v-8a.5.5 0 01.5-.5z" />
  <path d="M7.003 11.482a.5.5 0 01.5-.5h8a.5.5 0 110 1h-8a.5.5 0 01-.5-.5z" />
</svg>
