<svg width="16" height="16" fill="currentColor" xmlns="http://www.w3.org/2000/svg">
<path d="M8.72222 3C7.8938 3 7.22222 3.67157 7.22222 4.5V6H6C5.72386 6 5.5 6.22386 5.5 6.5C5.5 6.77614 5.72386 7 6 7H7.22222V11.5C7.22222 11.7761 6.99836 12 6.72222 12H5.5C5.22386 12 5 12.2239 5 12.5C5 12.7761 5.22386 13 5.5 13H6.72222C7.55065 13 8.22222 12.3284 8.22222 11.5V7H10C10.2761 7 10.5 6.77614 10.5 6.5C10.5 6.22386 10.2761 6 10 6H8.22222V4.5C8.22222 4.22386 8.44608 4 8.72222 4H10.5C10.7761 4 11 3.77614 11 3.5C11 3.22386 10.7761 3 10.5 3H8.72222Z"/>
</svg>

