<svg width="16" height="16" fill="none" xmlns="http://www.w3.org/2000/svg">
  <path
    d="M4.5 2A2.5 2.5 0 002 4.5v9a.5.5 0 00.5.5h3a.5.5 0 000-1H3V4.5A1.5 1.5 0 014.5 3H13v4.5a.5.5 0 001 0v-5a.5.5 0 00-.5-.5h-9z"
    fill="currentColor" />
  <path
    d="M5 5a.5.5 0 000 1h6a.5.5 0 000-1H5zM4.5 8a.5.5 0 01.5-.5h3.5a.5.5 0 010 1H5a.5.5 0 01-.5-.5zM5 10a.5.5 0 000 1h1.5a.5.5 0 000-1H5zM12.5 12.5a1 1 0 11-2 0 1 1 0 012 0z"
    fill="currentColor" />
  <path
    d="M14.955 12.292l-.001-.002-.001-.002-.004-.008-.011-.023a4.017 4.017 0 00-.191-.337 4.645 4.645 0 00-.614-.772c-.558-.563-1.44-1.148-2.677-1.148-1.24 0-2.102.587-2.64 1.156a4.388 4.388 0 00-.726 1.038l-.037.08-.01.023-.003.008-.001.002v.001s-.001.001.46.192l-.46-.192a.502.502 0 00-.001.383L8.5 12.5l-.462.19v.003l.002.002.003.008.01.024.037.079a4.388 4.388 0 00.725 1.038c.539.569 1.4 1.156 2.64 1.156 1.239 0 2.12-.585 2.678-1.148a4.645 4.645 0 00.765-1.031l.04-.078.011-.023.004-.008v-.002l.001-.001s-.208-.209 0-.417zm-5.862.15a3.38 3.38 0 01.45-.598c.406-.431 1.022-.844 1.913-.844.893 0 1.534.415 1.966.852a3.641 3.641 0 01.508.648c-.01.014-.018.03-.028.045a3.641 3.641 0 01-.48.603c-.432.437-1.073.852-1.966.852-.89 0-1.507-.413-1.914-.844a3.38 3.38 0 01-.483-.656l.034-.058z"
    fill="currentColor" />
  <path d="M14.955 12.292c.06.132.06.285 0 .417 0 0-.209-.209 0-.417z" fill="currentColor" />
</svg>
