<svg width="16" height="16" fill="currentColor" xmlns="http://www.w3.org/2000/svg">
  <path
    d="M.586.583A2 2 0 012-.003h12a2 2 0 012 2V6.5a.5.5 0 01-1 0V3.242L9.007 5.694a1.994 1.994 0 01-.5.22c-.17.05-.355.083-.507.083-.285 0-.692-.101-1.008-.303L1 3.242v7.755c0 .549.451 1 1 1h4.5a.5.5 0 010 1H2c-1.101 0-2-.9-2-2V2.508v-.511A2 2 0 01.586.583zM1 2.16l6.417 2.626a.5.5 0 01.096.053.925.925 0 00.254.115c.103.031.19.042.233.042.028 0 .113-.01.226-.043a.95.95 0 00.26-.114.5.5 0 01.097-.053L15 2.161v-.164a1 1 0 00-1-1H2a1 1 0 00-1 1v.164zM8.497 9a.5.5 0 01.5-.5H15.5a.5.5 0 01.5.5v6.503a.5.5 0 01-1 0v-5.296l-5.65 5.65a.5.5 0 01-.707-.707l5.65-5.65H8.997a.5.5 0 01-.5-.5z" />
</svg>
