<svg width="16" height="16" fill="currentColor" xmlns="http://www.w3.org/2000/svg">
  <path
    d="M.586.69A2 2 0 012 .105h12a2 2 0 012 2V6.5a.5.5 0 01-1 0V2.105a1 1 0 00-1-1H2a1 1 0 00-1 1v9c0 .548.451 1 1 1h3a.5.5 0 010 1H2c-1.101 0-2-.9-2-2v-9A2 2 0 01.586.69z" />
  <path
    d="M.037 2.415a.5.5 0 01.652-.273l6.728 2.753a.5.5 0 01.096.053.925.925 0 00.254.115c.103.03.19.042.233.042.028 0 .113-.01.226-.043a.95.95 0 00.26-.115.5.5 0 01.097-.052l6.728-2.753a.5.5 0 11.378.925L9.007 5.802a1.994 1.994 0 01-.5.22c-.17.05-.355.083-.507.083-.285 0-.692-.101-1.008-.303L.311 3.067a.5.5 0 01-.274-.652zM8.15 8.046a3.929 3.929 0 115.556 5.556 3.929 3.929 0 01-5.555-5.556zm2.778-.15a2.928 2.928 0 100 5.856 2.928 2.928 0 000-5.857z" />
  <path d="M13.432 13.328a.5.5 0 01.707 0l1.715 1.714a.5.5 0 01-.707.707l-1.715-1.714a.5.5 0 010-.707z" />
</svg>
