<svg width="16" height="16" fill="currentColor" xmlns="http://www.w3.org/2000/svg">
<path d="M9.78974 3.14915C9.87211 2.88558 9.72521 2.60514 9.46164 2.52277C9.19806 2.44041 8.91763 2.5873 8.83526 2.85087L5.71026 12.8509C5.62789 13.1144 5.77479 13.3949 6.03836 13.4773C6.30193 13.5596 6.58237 13.4127 6.66474 13.1491L9.78974 3.14915Z"/>
<path d="M4.35355 5.14646C4.54882 5.34172 4.54882 5.6583 4.35355 5.85356L2.20711 8.00001L4.35355 10.1465C4.54882 10.3417 4.54882 10.6583 4.35355 10.8536C4.15829 11.0488 3.84171 11.0488 3.64645 10.8536L1.14645 8.35356C0.951183 8.1583 0.951183 7.84172 1.14645 7.64646L3.64645 5.14646C3.84171 4.9512 4.15829 4.9512 4.35355 5.14646Z"/>
<path d="M11.1464 5.14646C11.3417 4.9512 11.6583 4.9512 11.8536 5.14646L14.3536 7.64646C14.5488 7.84172 14.5488 8.1583 14.3536 8.35356L11.8536 10.8536C11.6583 11.0488 11.3417 11.0488 11.1464 10.8536C10.9512 10.6583 10.9512 10.3417 11.1464 10.1465L13.2929 8.00001L11.1464 5.85356C10.9512 5.6583 10.9512 5.34172 11.1464 5.14646Z"/>
</svg>
