<svg width="12" height="14" fill="currentColor" xmlns="http://www.w3.org/2000/svg">
    <path
        d="M7.26 1.031a2.5 2.5 0 00-2.52 0L1.49 2.927a2.5 2.5 0 00-1.24 2.16v3.827a2.5 2.5 0 001.24 2.16l3.25 1.895a2.5 2.5 0 002.52 0l3.25-1.896a2.5 2.5 0 001.24-2.16V5.087a2.5 2.5 0 00-1.24-2.16L7.26 1.032zm-2.016.864a1.5 1.5 0 011.512 0l3.25 1.896c.08.047.156.1.226.161L6 6.421 1.768 3.952a1.5 1.5 0 01.226-.161l3.25-1.896zm-3.97 2.927L5.5 7.287v4.937a1.496 1.496 0 01-.256-.119l-3.25-1.896a1.5 1.5 0 01-.744-1.295V5.086c0-.09.008-.178.024-.264zM6.5 12.224V7.287l4.226-2.466c.016.087.024.176.024.265v3.828a1.5 1.5 0 01-.744 1.295l-3.25 1.896a1.501 1.501 0 01-.256.119z" />
</svg>
