<svg width="16" height="16" fill="currentColor" xmlns="http://www.w3.org/2000/svg">
  <path
    d="M.586.583A2 2 0 012-.003h12a2 2 0 012 2V6.5a.5.5 0 11-1 0V1.997a1 1 0 00-1-1H2a1 1 0 00-1 1v9c0 .549.451 1 1 1h4.5a.5.5 0 010 1H2c-1.101 0-2-.899-2-2v-9A2 2 0 01.586.583z" />
  <path
    d="M.037 2.308a.5.5 0 01.652-.274l6.728 2.753a.5.5 0 01.096.053.926.926 0 00.254.115c.103.031.19.042.233.042.028 0 .113-.01.226-.043a.95.95 0 00.26-.114.5.5 0 01.097-.053l6.728-2.753a.5.5 0 01.378.926L9.007 5.694a1.994 1.994 0 01-.5.22c-.17.05-.355.083-.507.083-.285 0-.692-.1-1.008-.303L.311 2.96a.5.5 0 01-.274-.652zM9 9.503a.5.5 0 01.5-.5h6a.5.5 0 01.5.5v6a.5.5 0 11-1 0v-5.5H9.5a.5.5 0 01-.5-.5z" />
  <path d="M15.854 9.15a.5.5 0 010 .707l-6 6a.5.5 0 11-.708-.707l6-6a.5.5 0 01.708 0z" />
</svg>
