<svg width="16" height="16" fill="none" xmlns="http://www.w3.org/2000/svg">
    <path
        d="M9.26 2.031a2.5 2.5 0 00-2.52 0L3.49 3.927a2.5 2.5 0 00-1.24 2.16v3.827a2.5 2.5 0 001.24 2.16l3.25 1.895a2.5 2.5 0 002.52 0l3.25-1.896a2.5 2.5 0 001.24-2.16V6.087a2.5 2.5 0 00-1.24-2.16L9.26 2.032zm-2.016.864a1.5 1.5 0 011.512 0l3.25 1.896c.08.047.156.1.226.161L8 7.421 3.768 4.952a1.5 1.5 0 01.226-.161l3.25-1.896zm-3.97 2.927L7.5 8.287v4.937a1.496 1.496 0 01-.256-.119l-3.25-1.896a1.5 1.5 0 01-.744-1.295V6.086c0-.09.008-.178.024-.264zM8.5 13.224V8.287l4.226-2.466c.016.087.024.176.024.265v3.828a1.5 1.5 0 01-.744 1.295l-3.25 1.896a1.501 1.501 0 01-.256.119z"
        fill="#000" />
</svg>
