<svg width="16" height="16" fill="currentColor" xmlns="http://www.w3.org/2000/svg">
  <path
    d="M1.37 2.704c.344-.344.81-.537 1.297-.537h10.666A1.833 1.833 0 0115.167 4v4.333a.5.5 0 01-1 0V4a.833.833 0 00-.834-.833H2.667A.833.833 0 001.833 4v8c0 .457.376.833.834.833h5a.5.5 0 010 1h-5A1.837 1.837 0 01.833 12V4c0-.486.193-.953.537-1.296z" />
  <path
    d="M.911 4.399a.5.5 0 01.69-.154L7.58 8.044a.793.793 0 00.84 0l.001-.001L14.4 4.245a.5.5 0 11.536.844L8.952 8.89a1.793 1.793 0 01-1.904 0l-.003-.001-5.98-3.8a.5.5 0 01-.154-.69zM12 10.5a1.5 1.5 0 100 3 1.5 1.5 0 000-3zM9.5 12a2.5 2.5 0 115 0 2.5 2.5 0 01-5 0z" />
  <path d="M13.313 13.313a.5.5 0 01.707 0l1 1a.5.5 0 11-.707.707l-1-1a.5.5 0 010-.707z" />
</svg>
