<svg width="16" height="16" fill="currentColor" xmlns="http://www.w3.org/2000/svg">
  <path
    d="M6 10.333a.5.5 0 01.5.5v3.334a.5.5 0 11-1 0v-3.334a.5.5 0 01.5-.5zM4 1a.5.5 0 01.5.5v3a.5.5 0 01-1 0v-3A.5.5 0 014 1zM8 1a.5.5 0 01.5.5v3a.5.5 0 01-1 0v-3A.5.5 0 018 1z" />
  <path
    d="M1.5 4.5A.5.5 0 012 4h8a.5.5 0 01.5.5v3.333A3.166 3.166 0 017.333 11H4.667A3.166 3.166 0 011.5 7.833V4.5zm1 .5v2.833A2.167 2.167 0 004.667 10h2.666A2.167 2.167 0 009.5 7.833V5h-7zM12 10a.5.5 0 01.5.5v4a.5.5 0 01-1 0v-4a.5.5 0 01.5-.5z" />
  <path
    d="M9.646 12.146a.5.5 0 01.708 0L12 13.793l1.646-1.647a.5.5 0 01.708.708l-2 2a.5.5 0 01-.708 0l-2-2a.5.5 0 010-.708z" />
</svg>
