<svg width="16" height="16" fill="none" xmlns="http://www.w3.org/2000/svg">
  <path
    d="M3 2a1 1 0 00-1 1v2a1 1 0 001 1h2a1 1 0 001-1V3a1 1 0 00-1-1H3zm2 1v2H3V3h2zM8 10a2 2 0 100-4 2 2 0 000 4zm0-1a1 1 0 110-2 1 1 0 010 2z"
    fill="currentColor" />
  <path
    d="M7.5 3.5a.5.5 0 000 1h3.983a1.532 1.532 0 011.074.44A1.5 1.5 0 0113 6a1.485 1.485 0 01-.443 1.06c-.14.139-.308.25-.492.325a2 2 0 01-.359.083 5.21 5.21 0 01-.24.033l-.013.001h-.004a.5.5 0 10.102.995h.008l.019-.003a5.557 5.557 0 00.287-.039c.158-.025.398-.07.58-.145a2.519 2.519 0 001.363-1.352 2.484 2.484 0 00-.547-2.727 2.519 2.519 0 00-1.778-.731H7.5zM8.5 12a.5.5 0 01-.5.5H4.017a2.532 2.532 0 01-1.778-.73A2.5 2.5 0 011.5 10a2.485 2.485 0 01.739-1.77c.234-.231.511-.415.816-.54.182-.075.422-.12.58-.145a6.214 6.214 0 01.287-.04l.02-.002h.007a.5.5 0 01.102.994h-.004l-.014.002a4.686 4.686 0 00-.239.033 2.002 2.002 0 00-.359.083 1.518 1.518 0 00-.82.812 1.485 1.485 0 00.328 1.632 1.52 1.52 0 001.074.441H8a.5.5 0 01.5.5zM12.268 10.396a.6.6 0 00-1.036 0l-1.576 2.702a.6.6 0 00.518.902h3.152a.6.6 0 00.518-.902l-1.576-2.702zM10.87 13l.88-1.508.88 1.508h-1.76z"
    fill="currentColor" />
</svg>
