<svg width="14" height="14" fill="currentColor" xmlns="http://www.w3.org/2000/svg">
    <path
        d="M6.244 3.362a1.5 1.5 0 011.512 0l2 1.167a1.5 1.5 0 01.744 1.295v2.352a1.5 1.5 0 01-.744 1.295l-2 1.167a1.5 1.5 0 01-1.512 0l-2-1.167A1.5 1.5 0 013.5 8.176V5.824a1.5 1.5 0 01.744-1.295l2-1.167zm1.008.864a.5.5 0 00-.504 0L4.992 5.25 7 6.42l2.008-1.171-1.756-1.023zM4.5 8.176a.5.5 0 00.248.432L6.5 9.63V7.287l-2-1.167v2.056zm4.752.432a.5.5 0 00.248-.432V6.121l-2 1.166v2.342l1.752-1.021z" />
    <path
        d="M8.25.644a2.5 2.5 0 00-2.5 0L2.12 2.74A2.5 2.5 0 00.87 4.905v4.19a2.5 2.5 0 001.25 2.165l3.63 2.096a2.5 2.5 0 002.5 0l3.629-2.096a2.5 2.5 0 001.25-2.165v-4.19a2.5 2.5 0 00-1.25-2.165L8.249.644h.001zm-2 .866a1.5 1.5 0 011.5 0l3.629 2.096a1.5 1.5 0 01.75 1.299v4.19a1.5 1.5 0 01-.75 1.3l-3.63 2.095a1.5 1.5 0 01-1.5 0l-3.628-2.096a1.5 1.5 0 01-.75-1.299v-4.19a1.5 1.5 0 01.75-1.3L6.25 1.51z" />
</svg>
