<svg width="16" height="16" fill="currentColor" xmlns="http://www.w3.org/2000/svg">
  <path
    d="M1.37 2.704c.344-.344.81-.537 1.297-.537h10.666A1.833 1.833 0 0115.167 4v4a.5.5 0 11-1 0V4a.833.833 0 00-.834-.833H2.667A.833.833 0 001.833 4v8c0 .457.376.833.834.833H10a.5.5 0 010 1H2.667A1.837 1.837 0 01.833 12V4c0-.486.193-.953.537-1.296z" />
  <path
    d="M.911 4.398a.5.5 0 01.69-.153L7.58 8.044a.793.793 0 00.84 0l.001-.001L14.4 4.245a.5.5 0 11.536.844L8.952 8.89a1.793 1.793 0 01-1.904 0l-.003-.001-5.98-3.8a.5.5 0 01-.154-.69zM11.5 10a.5.5 0 01.5-.5h3.333a.5.5 0 01.5.5v3.333a.5.5 0 11-1 0V10.5H12a.5.5 0 01-.5-.5z" />
  <path d="M15.687 9.646a.5.5 0 010 .707l-3.333 3.334a.5.5 0 11-.708-.707l3.334-3.334a.5.5 0 01.707 0z" />
</svg>
