<svg width="14" height="14" fill="currentColor" xmlns="http://www.w3.org/2000/svg">
    <path
        d="M2.5 0A2.5 2.5 0 000 2.5v9a.5.5 0 00.5.5h7.712a.731.731 0 011.459-.006A2.5 2.5 0 0012 9.5v-9a.5.5 0 00-.5-.5h-9zM1 2.5A1.5 1.5 0 012.5 1H11v8.5A1.5 1.5 0 019.5 11H1V2.5zM3 3a.5.5 0 000 1h6a.5.5 0 000-1H3zm0 2.5a.5.5 0 000 1h6a.5.5 0 000-1H3zM3 8a.5.5 0 000 1h3a.5.5 0 000-1H3z" />
    <path
        d="M9.519 5.372a.667.667 0 00-1.155 0l-4.328 7.503a.667.667 0 00.577 1h8.657a.667.667 0 00.578-1L9.519 5.372zM8.424 7.477a.519.519 0 111.035 0l-.132 2.377a.386.386 0 01-.771 0l-.132-2.377zm1.249 4.57a.731.731 0 11-1.462 0 .731.731 0 011.462 0z"
        fill="#EE9D28" />
</svg>