<svg width="16" height="16" fill="currentColor" xmlns="http://www.w3.org/2000/svg">
  <path
    d="M1.015 9.074l-.338.352-.677.707v.123l.677.708 1.013 1.059V8.369l-.676.704zm2.368.522l-.677-.704V7.306l-.358.372v.841l-.321-.334v4.19l.679.712v-.002l.338.353.676.708v-7.9l-.335.35-.002 3zm2.028-.947l-.677.707V5.184l-.338.354v.929l.001 3.24-.34.356v4.19l1.016-1.062.678-.709v-8.36l-.34.355V8.65zm2.032-2.123l-.678.708V3.062l-.34.356v4.169l-.336.354-.001 4.191.677-.708.34-.356v.003l.676-.707V2l-.34.356.002 4.17zm2.197-2.94l-.168-.177v4.178l-.678-.709V2.68l-.167-.175v.021l-.169-.176-.001 4.173-.339-.351v4.187l.676.706.338.353.678.71V3.742l-.17-.178v.021zm2.03 2.122l-.168-.18v.951L11.5 9.424v.284l-.338-.354-.338-.353V4.803l-.171-.18v.021l-.166-.176v4.178l-.34-.353v4.187l.677.708.338.352.675.707V5.862l-.166-.174v.02zm2.197 2.257l-.335-.348v.925l-.677.707V6.916l-.338-.35v.007l.002 3.027-.342.356v4.19l.678-.708.337-.353v.003l.677-.71V11.9l-.002-3.916v-.019zm1.354 1.403v.002l-.336-.348-.677-.702v3.702l.677-.706v-.002l.336-.35.677-.708v-.184l-.677-.704z" />
</svg>