<svg width="36" height="28" fill="currentColor" xmlns="http://www.w3.org/2000/svg"><path d="M2.283 15.916l-.76.793v-.002L0 18.3v.276l1.523 1.593 2.279 2.382v-8.22l-1.52 1.583v.002zM7.612 17.092l-1.524-1.585v-3.568l-.805.836v1.893l-.723-.752v9.428l1.528 1.602v-.004l.76.794 1.523 1.592V9.552l-.755.79-.004 6.75zM12.174 14.96l-1.522 1.591.001-5.702V7.163l-.762.797v2.09l.003 7.292-.765.8v9.427l2.286-2.39 1.525-1.594V4.774l-.766.8v9.386zM16.746 10.183l-1.524 1.594V2.39l-.765.8v9.38l-.756.797-.003 9.43 1.524-1.594.765-.8v.007l1.521-1.59V0l-.765.8.003 9.383zM21.69 3.567l-.379-.397v9.4l-1.524-1.594V1.53l-.376-.394v.048l-.38-.397-.003 9.39-.762-.79v9.42l1.521 1.59.759.793 1.527 1.597V3.92l-.382-.4v.047zM26.259 8.344l-.38-.404v2.138l-.003 6.627v.638l-.762-.796-.76-.794V6.307l-.385-.404v.047l-.373-.397v9.4l-.765-.793v9.42l1.524 1.593.759.793 1.52 1.59V8.69l-.375-.393v.047zM31.201 13.422l-.755-.784v2.082l-1.523 1.59v-5.25l-.76-.785v.014l.005 6.81-.769.802v9.428l1.524-1.593.76-.794v.005l1.523-1.597v-1.075l-.005-8.81v-.043zM34.247 16.579v.004l-.755-.783-1.523-1.58v8.33l1.523-1.588v-.005l.755-.789 1.524-1.592v-.414l-1.524-1.583z" fill="currentColor"/></svg>