<svg width="24" height="24" viewBox="0 0 24 24" fill="none" xmlns="http://www.w3.org/2000/svg">
<path d="M15.644 11.623C14.5759 11.5602 13.5078 11.5602 12.4398 11.5602C12.4398 10.4922 12.4398 9.42409 12.377 8.35603L12.3141 6.53404C12.3141 5.90577 12.2513 5.34032 12.2513 4.71205H11.7487C11.6859 5.34032 11.6859 5.90577 11.6859 6.53404L11.623 8.35603C11.623 8.85865 11.623 9.36127 11.623 9.86388C11.4345 9.42409 11.2461 8.92148 10.9948 8.48169L10.2408 6.78535C9.98952 6.21991 9.73821 5.65446 9.42408 5.15184L8.92146 5.34032C9.10994 5.90577 9.36125 6.47121 9.54973 7.09949L10.178 8.79582C10.3665 9.29844 10.555 9.73823 10.7434 10.178C10.3665 9.80106 9.98952 9.48692 9.67539 9.10996L8.35602 7.85341C7.91622 7.41362 7.47643 7.03666 6.97382 6.59687L6.59685 6.97383C6.97382 7.41362 7.41361 7.85341 7.8534 8.35603L9.10994 9.6754C9.48691 10.0524 9.80104 10.4293 10.178 10.7435C9.73821 10.555 9.2356 10.3665 8.79581 10.178L7.09947 9.54975C6.53403 9.36127 5.96858 9.10996 5.34031 8.92148L5.15183 9.42409C5.71727 9.6754 6.28272 9.92671 6.78533 10.2408L8.48167 10.9948C8.92146 11.1833 9.42408 11.3717 9.86387 11.623C9.36125 11.623 8.85863 11.623 8.35602 11.623L6.53403 11.6859C5.90575 11.6859 5.34031 11.7487 4.71204 11.7487V12.2513C5.34031 12.3141 5.90575 12.3141 6.53403 12.3141L8.35602 12.377C9.42408 12.377 10.4921 12.4398 11.5602 12.4398C11.5602 13.5079 11.5602 14.5759 11.623 15.644L11.6859 17.466C11.7487 18.0943 11.7487 18.6597 11.8115 19.288H12.2513C12.3141 18.6597 12.3141 18.0943 12.377 17.466L12.4398 15.644C12.4398 15.1414 12.4398 14.6388 12.5026 14.0733C12.6911 14.5759 12.9424 15.0157 13.1309 15.5183L13.8848 17.2147C14.1361 17.7801 14.3874 18.3456 14.7016 18.8482L15.1414 18.6597C14.9529 18.0943 14.7644 17.5288 14.5131 16.9005L13.8848 15.2042C13.6963 14.7016 13.5078 14.2618 13.3194 13.7592C13.6963 14.1361 14.0733 14.4503 14.4503 14.8272L15.7696 16.0838C16.2094 16.5236 16.6492 16.9005 17.1518 17.3403L17.466 17.0262C17.089 16.5864 16.6492 16.1466 16.2094 15.644L14.9529 14.3246C14.5759 13.9477 14.2618 13.5707 13.8848 13.1937C14.3874 13.3822 14.8272 13.5707 15.3298 13.7592L17.0262 14.3874C17.5916 14.5759 18.1571 14.8272 18.7853 15.0157L18.9738 14.5759C18.4084 14.3246 17.8429 14.0733 17.3403 13.7592L15.644 13.0052C15.1414 12.8168 14.7016 12.5655 14.1989 12.377C14.7016 12.377 15.2042 12.377 15.7696 12.3141L17.5916 12.2513C18.2199 12.1885 18.7853 12.1885 19.4136 12.1257V11.6859C18.7853 11.623 18.2199 11.623 17.5916 11.5602L15.644 11.623Z" fill="#000000"/>
<path d="M12 0C5.40314 0 0 5.40314 0 12C0 18.5969 5.40314 24 12 24C18.5969 24 24 18.5969 24 12C24 5.40314 18.5969 0 12 0ZM12 22.8691C6.03141 22.8691 1.13089 17.9686 1.13089 12C1.13089 6.03141 6.03141 1.13089 12 1.13089C17.9686 1.13089 22.8691 6.03141 22.8691 12C22.8691 18.0314 18.0314 22.8691 12 22.8691Z" fill="#000000"/>
</svg>
